<?xml version="1.0" encoding="utf-8"?>
<!-- Generator: Adobe Illustrator 18.1.1, SVG Export Plug-In . SVG Version: 6.00 Build 0)  -->
<svg version="1.1" id="Layer_1" xmlns="http://www.w3.org/2000/svg" xmlns:xlink="http://www.w3.org/1999/xlink" x="0px" y="0px"
	 viewBox="0 0 600 600" enable-background="new 0 0 600 600" xml:space="preserve">
<path fill="#1B1B1B" d="M579.9,395.7c-0.1-0.4-0.2-0.8-0.3-1.2c-0.1-0.3-0.1-0.5-0.2-0.8c-0.1-0.1-0.1-0.2-0.2-0.3
	c-0.2-0.4-0.4-0.7-0.6-1c-0.2-0.3-0.4-0.7-0.7-1c-0.1-0.1-0.1-0.2-0.2-0.3l-68-68c0,0,0,0,0,0c0,0-0.1,0-0.1-0.1
	c-0.5-0.5-1.1-0.9-1.7-1.2c-0.1-0.1-0.3-0.2-0.4-0.2c-0.6-0.3-1.3-0.5-2-0.7c-0.2,0-0.3,0-0.5,0c-0.7-0.1-1.3-0.1-2,0
	c-0.1,0-0.1,0-0.2,0l-16,2.7l51.6-36.9c0.1,0,0.1-0.1,0.1-0.1c0.6-0.4,1.1-1,1.5-1.5c0.1-0.1,0.1-0.2,0.2-0.3c0.4-0.6,0.8-1.3,1-2
	c0.1-0.1,0.1-0.3,0.1-0.4c0.2-0.7,0.3-1.4,0.3-2.1c0-0.1,0-0.1,0-0.2c0,0,0,0,0,0V163.4c0-0.1,0-0.2-0.1-0.4c0-0.4-0.1-0.8-0.2-1.2
	c-0.1-0.4-0.1-0.8-0.3-1.1c0-0.1,0-0.3-0.1-0.4c-0.1-0.2-0.3-0.4-0.4-0.7c-0.2-0.4-0.4-0.7-0.6-1c-0.2-0.3-0.5-0.6-0.8-0.9
	c-0.3-0.3-0.6-0.5-0.9-0.8c-0.3-0.2-0.7-0.4-1-0.6c-0.2-0.1-0.4-0.3-0.7-0.4c-0.1,0-0.2,0-0.4-0.1c-0.4-0.1-0.8-0.2-1.2-0.3
	c-0.4-0.1-0.8-0.2-1.2-0.2c-0.1,0-0.2-0.1-0.4-0.1H416.7c0,0,0,0-0.1,0c0,0,0,0-0.1,0c-0.8,0-1.5,0.2-2.2,0.4
	c-0.1,0-0.3,0.1-0.4,0.1c-0.7,0.2-1.4,0.6-2,1c-0.1,0.1-0.2,0.1-0.2,0.2c-0.6,0.4-1.1,1-1.5,1.5c0,0.1-0.1,0.1-0.1,0.1l-17.9,25
	l12.8-76.8c0-0.1,0-0.2,0-0.2c0-0.4,0.1-0.7,0.1-1.1c0-0.3-0.1-0.6-0.1-1c0-0.1,0-0.3,0-0.4c-0.1-0.7-0.4-1.4-0.7-2.1
	c-0.1-0.1-0.2-0.3-0.2-0.4c-0.3-0.6-0.7-1.2-1.2-1.7c0,0,0-0.1-0.1-0.1c0,0,0,0,0,0L305.7,2.7c-0.1-0.1-0.2-0.1-0.3-0.2
	c-0.3-0.3-0.6-0.5-1-0.7c-0.3-0.2-0.7-0.4-1-0.6c-0.1-0.1-0.2-0.1-0.3-0.2c-0.2-0.1-0.5-0.1-0.8-0.2c-0.4-0.1-0.8-0.2-1.2-0.3
	c-0.4-0.1-0.8-0.1-1.2-0.1c-0.4,0-0.7,0-1.1,0.1c-0.4,0.1-0.8,0.2-1.2,0.3c-0.2,0.1-0.5,0.1-0.7,0.2c-0.1,0-0.2,0.1-0.3,0.2
	c-0.4,0.2-0.7,0.4-1.1,0.6c-0.3,0.2-0.7,0.4-0.9,0.7c-0.1,0.1-0.2,0.1-0.3,0.2l-97.1,97.1c0,0,0,0,0,0c0,0,0,0.1-0.1,0.1
	c-0.5,0.5-0.9,1.1-1.3,1.8c-0.1,0.1-0.1,0.3-0.2,0.4c-0.3,0.7-0.5,1.4-0.7,2.1c0,0.1,0,0.2,0,0.3c-0.1,0.7-0.1,1.4,0,2.2
	c0,0.1,0,0.1,0,0.2l12.8,76.8l-17.9-25c0-0.1-0.1-0.1-0.1-0.1c-0.4-0.6-0.9-1.1-1.5-1.5c-0.1-0.1-0.2-0.2-0.3-0.2
	c-0.6-0.4-1.3-0.8-2-1c-0.1,0-0.3-0.1-0.4-0.1c-0.7-0.2-1.4-0.3-2.2-0.4c0,0-0.1,0-0.1,0c0,0,0,0-0.1,0H66.5c-0.1,0-0.3,0.1-0.4,0.1
	c-0.4,0-0.8,0.1-1.1,0.2c-0.4,0.1-0.8,0.2-1.2,0.3c-0.1,0-0.2,0-0.4,0.1c-0.2,0.1-0.4,0.3-0.7,0.4c-0.4,0.2-0.7,0.4-1,0.6
	c-0.3,0.2-0.6,0.5-0.9,0.8c-0.3,0.3-0.5,0.6-0.8,0.9c-0.2,0.3-0.4,0.7-0.6,1c-0.1,0.2-0.3,0.4-0.4,0.7c-0.1,0.1,0,0.3-0.1,0.4
	c-0.1,0.4-0.2,0.7-0.3,1.1c-0.1,0.4-0.2,0.8-0.2,1.2c0,0.1-0.1,0.2-0.1,0.4v116.7c0,0,0,0,0,0c0,0.1,0,0.1,0,0.2
	c0,0.7,0.1,1.4,0.3,2.1c0,0.1,0.1,0.3,0.1,0.4c0.2,0.7,0.6,1.3,1,2c0.1,0.1,0.1,0.2,0.2,0.3c0.4,0.6,0.9,1.1,1.5,1.5
	c0.1,0,0.1,0.1,0.1,0.1l51.6,36.9l-16-2.7c-0.1,0-0.1,0-0.2,0c-0.7-0.1-1.4-0.1-2,0c-0.2,0-0.3,0-0.5,0c-0.7,0.1-1.4,0.3-2,0.7
	c-0.1,0.1-0.3,0.1-0.4,0.2c-0.6,0.3-1.2,0.7-1.8,1.2c0,0-0.1,0-0.1,0.1c0,0,0,0,0,0l-68,68c-0.1,0.1-0.1,0.2-0.2,0.3
	c-0.3,0.3-0.5,0.6-0.7,1c-0.2,0.3-0.4,0.7-0.6,1c-0.1,0.1-0.1,0.2-0.2,0.3c-0.1,0.2-0.1,0.5-0.2,0.8c-0.1,0.4-0.2,0.8-0.3,1.2
	c-0.1,0.4-0.1,0.8-0.1,1.2c0,0.4,0,0.8,0.1,1.2c0.1,0.4,0.2,0.8,0.3,1.2c0.1,0.3,0.1,0.5,0.2,0.8c0.1,0.1,0.1,0.2,0.2,0.3
	c0.2,0.4,0.4,0.7,0.6,1c0.2,0.3,0.4,0.7,0.7,1c0.1,0.1,0.1,0.2,0.2,0.3l68,68c0.4,0.4,0.9,0.8,1.4,1.1c0.1,0.1,0.3,0.2,0.5,0.2
	c0.4,0.2,0.9,0.4,1.3,0.6c0.2,0.1,0.4,0.1,0.6,0.2c0.6,0.1,1.2,0.2,1.8,0.2c0,0,0.1,0,0.1,0c0.4,0,0.9,0,1.3-0.1l81.6-13.6l7.8-1.3
	v44.3c0,4.5,3.6,8.1,8.1,8.1h64.6c0,0,0,0,0,0c2.6,0,5-1.2,6.6-3.4l22.8-32v113.5c0,6.1,5,11.1,11.1,11.1s11.1-5,11.1-11.1V475
	l22.8,32c1.5,2.2,4,3.4,6.6,3.4c0,0,0,0,0,0h64.6c4.5,0,8.1-3.6,8.1-8.1v-44.3l7.8,1.3l81.6,13.6c0.4,0.1,0.9,0.1,1.3,0.1
	c0,0,0.1,0,0.1,0c0.6,0,1.2-0.1,1.8-0.2c0.2,0,0.4-0.1,0.6-0.2c0.5-0.2,0.9-0.3,1.3-0.6c0.1-0.1,0.3-0.1,0.5-0.2
	c0.5-0.3,1-0.7,1.4-1.1l68-68c0.1-0.1,0.1-0.2,0.2-0.3c0.3-0.3,0.5-0.6,0.7-1c0.2-0.3,0.4-0.7,0.6-1c0.1-0.1,0.1-0.2,0.2-0.3
	c0.1-0.2,0.1-0.5,0.2-0.8c0.1-0.4,0.2-0.8,0.3-1.2c0.1-0.4,0.1-0.8,0.1-1.2C579.9,396.5,579.9,396.1,579.9,395.7z M525.4,272h-89.1
	l89.1-89.1V272z M424.8,171.5h89.1l-89.1,89.1V171.5z M420.1,288.2h88.1l-58,41.4l-1.1,0.8h-3.6h-67.7L420.1,288.2z M397.1,437.4
	l1.7,1.7l-1.7-0.3l-52.4-8.7l-0.8-0.8L319.5,405H346h2.6h16l24.3,24.3L397.1,437.4z M332.4,440.7l-21.3-21.3l0,0L332.4,440.7z
	 M364.6,388.8L364.6,388.8h-16h-29.1h0l25.1-25.1l1.8-1.8l8-8l7.2-7.2h36h9.1h19.7l-59.1,42.2H364.6z M456.5,345.1l0.1-0.1l23.7-4
	l-47.7,47.7h-37.3L456.5,345.1z M386.2,220l22.4-31.4v88.1l-34.4,34.4l-3.9,3.9l15.3-91.6L386.2,220z M308.1,28l77.6,77.6
	l-22.7,22.7l-54.9,54.9V28z M308.1,206l76.9-76.9l-14.1,84.5l-0.8,4.5l-8.7,8.7l-53.4,53.4V206z M308.1,329.4v-2.6v-11.3v-12.4
	l31-31l11.2-11.2l15.3-15.3l-14.8,89.1l-0.4,0.4l-42.2,42.2V329.4z M249.7,335.1l-0.4-0.4l-14.8-89.1l15.3,15.3l11.2,11.2l31,31
	v12.4v11.3v2.6v47.9L249.7,335.1z M291.9,280.2l-53.4-53.4l-8.7-8.7l-0.8-4.5L215,129.1l76.9,76.9V280.2z M238.3,346.6l7.2,7.2l8,8
	l1.8,1.8l25.1,25.1h0h-29.1h-16h0h-2.8l-59.1-42.2h19.7h9.1H238.3z M256.1,429.3l-0.8,0.8l-52.4,8.7l-1.7,0.3l1.7-1.7l8.1-8.1
	l24.3-24.3h16h2.6h26.5L256.1,429.3z M204.7,388.8h-37.3L119.6,341l23.7,4l0.1,0.1L204.7,388.8z M212.5,405l-38.7,38.7l-54.1,9
	l47.8-47.8H212.5z M291.9,28v155.2l-54.8-54.9l-22.7-22.7L291.9,28z M191.4,188.6l22.4,31.4l0.6,3.4l15.3,91.6l-3.9-3.9l-34.4-34.4
	V188.6z M175.2,171.5v89.1l-89.1-89.1H175.2z M74.6,182.9l44.6,44.6l44.6,44.6H74.6V182.9z M91.8,288.2h88.1l42.2,42.2h-67.7h-3.6
	l-1.1-0.8L91.8,288.2z M96.1,340.3l48.4,48.4H47.6L96.1,340.3z M144.5,405l-34.2,34.3l-14.2,14.2L47.6,405H144.5z M251.4,494.2
	h-48.5v-38.9l48.5-8.1V494.2z M267.6,477v-36.2l21.3-21.3v27.7L267.6,477z M332.4,477l-21.3-29.9v-27.7l21.3,21.3V477z M397.1,494.2
	h-48.5v-47l48.5,8.1V494.2z M395.2,412.6l-7.6-7.6h45.1l47.8,47.8l-54.1-9L395.2,412.6z M503.9,453.4l-14.2-14.2L455.5,405h96.9
	L503.9,453.4z M455.5,388.8l48.4-48.4l48.4,48.4H455.5z"/>
</svg>
